<svg version="1" xmlns="http://www.w3.org/2000/svg" width="298.667" height="298.667" viewBox="0 0 224.000000 224.000000"><path d="M105 27.4c-2.5 1.9-13.9 10.9-25.5 20S53.8 67.7 48 72.3c-37 29.2-36 28.3-32.7 30.4.6.4 5.2 1 10.2 1.3l9 .5.5 45c.5 48.9.4 48 6.3 51.5 3.1 1.9 5.6 2 70.5 2 74.7 0 71 .3 75.4-6.7l2.3-3.8.3-44.3.3-44.2h8c8.3 0 11.9-1.1 11.9-3.4 0-.8-5.1-5.5-11.4-10.5-6.2-4.9-11.6-9.8-12-10.6-.3-.9-.6-8.6-.6-17 0-13-.2-15.4-1.6-15.9-.9-.3-5.1-.6-9.4-.6-9.4 0-10 .6-10 9.9 0 3.8-.4 6.1-1.1 6.1-.6 0-10.4-7.3-21.8-16.3C114.8 24.1 114.7 24 111.9 24c-1.3 0-4.4 1.6-6.9 3.4zm10.2 33.2c1.7.9 7.1 4.8 11.9 8.8 4.8 3.9 11.3 9.1 14.4 11.6 3.1 2.5 7.6 6.1 9.9 8 2.4 1.9 5.6 4.4 7.1 5.6l2.9 2-.3 36.9c-.1 20.9-.7 37.7-1.2 38.7-.9 1.7-3.9 1.8-47.7 1.8-35.1 0-47.1-.3-48-1.2-.9-.9-1.2-10.8-1.2-38.6V96.8l4.3-3.9c2.3-2.1 4.5-3.9 4.9-3.9.4 0 1.3-.6 2-1.3.7-.7 3.3-2.8 5.8-4.7 2.5-1.9 4.7-3.7 5-4 .3-.3 3.4-2.8 7-5.5 9.1-6.9 10-7.7 12.7-10.2 2.5-2.4 5.3-4.2 6.6-4.3.4 0 2.2.7 3.9 1.6z"/></svg>