<?xml version="1.0" encoding="UTF-8"?>
<svg style="" version="1.1" viewBox="0 0 123 169" xmlns="http://www.w3.org/2000/svg">
<rect class="" width="100%" height="100%" fill="none" style=""/>
<g class="currentLayer" style="">
<title>Layer 1</title>
<rect class="" x="1" y="1" width="120.83" height="167.33" rx="10" ry="10" color="rgb(0, 0, 0)" fill="none" stroke="#000" stroke-dashoffset="" stroke-width="2"/>
<g class="" transform="">
<path transform="" d="m14.15 26.145c0-1.0548 0.46123-1.7286 0.99065-2.1457 0.5254-0.41311 11.495-8.9399 11.804-9.1806 0.30481-0.24466 0.56952-0.34893 0.82621-0.34893 0.25268 0 0.5214 0.10427 0.83022 0.34893 0.30482 0.24064 11.266 8.7674 11.796 9.1806 0.5254 0.41711 0.98664 1.0909 0.98664 2.1457v18.197c0 0.86633-0.4492 1.4719-1.3556 1.4719h-24.522c-0.90642 0-1.3556-0.60561-1.3556-1.4719zm33.241 0.36498c-0.16845-0.13637-4.3717-3.4813-4.3717-3.4813v-6.1484c0-0.45723-0.18048-0.58557-0.50135-0.58557h-2.7514c-0.37299 0-0.60161 0.072191-0.60161 0.58557v3.1244c-4.9172-3.8904-10.251-8.1097-10.452-8.2701-0.40508-0.31685-0.65374-0.40108-0.94252-0.40108-0.28475 0-0.53343 0.084226-0.93851 0.40108-0.40107 0.32086-18.141 14.35-18.678 14.776-0.65375 0.51738-0.47327 1.2634 0.25669 1.2634h3.4653v18.818c0 0.85429 0.25669 1.3316 0.79412 1.5522 0.23263 0.092247 0.50134 0.15241 0.84627 0.15241h28.512c0.34492 0 0.61364-0.060165 0.84225-0.15241 0.54145-0.2206 0.79814-0.69786 0.79814-1.5522v-18.818h3.4613c0.72995 0 0.91444-0.74599 0.26069-1.2634"/>
<path transform="" d="m20.559 28.539c0-0.44519 0-0.79813 0.48129-1.1872 0.31685-0.25669 6.0321-4.7728 6.2046-4.9051 0.16845-0.13636 0.33689-0.20856 0.5254-0.20856 0.18049 0 0.35696 0.072195 0.52942 0.20856 0.17246 0.13235 5.8837 4.6484 6.2006 4.9051 0.4853 0.38904 0.4853 0.74199 0.4853 1.1872v9.9586c0 0.63371-0.35295 0.87836-0.83424 0.87836h-12.762c-0.48129 0-0.83022-0.24465-0.83022-0.87836zm-1.3235 13.296h17.074c0.61765 0 1.0388-0.34492 1.0388-1.0909v-13.063c0-0.72193-0.16845-1.139-0.68182-1.5481-0.28877-0.22861-8.0575-6.373-8.2661-6.5335-0.20455-0.16444-0.42915-0.24866-0.62969-0.24866-0.20054 0-0.42112 0.084225-0.62968 0.24866-0.20454 0.16043-7.9733 6.3049-8.2621 6.5335-0.51337 0.4091-0.68182 0.82621-0.68182 1.5481v13.063c0 0.746 0.41712 1.0909 1.0388 1.0909"/>
<path transform="" d="m26.142 30.91c0-0.12433 0.048132-0.25267 0.16043-0.34091 0.056149-0.048128 1.2794-1.0067 1.3235-1.0428 0.044121-0.032093 0.10829-0.052145 0.1484-0.052145 0.040106 0 0.10427 0.020052 0.14839 0.052145 0.044115 0.036091 1.2674 0.99466 1.3235 1.0428 0.10829 0.088236 0.16043 0.21658 0.16043 0.34091v2.6391c0 0.1885-0.092247 0.22861-0.2246 0.22861h-2.8155c-0.13235 0-0.2246-0.040108-0.2246-0.22861zm-1.8329 5.2701h6.9265c0.31684 0 0.54145-0.10429 0.54145-0.55349v-5.5909c0-0.2968-0.12434-0.60162-0.38504-0.81418-0.14037-0.11631-3.1564-2.4265-3.2647-2.5107-0.10428-0.084223-0.2607-0.13235-0.35696-0.13235-0.092243 0-0.24866 0.048132-0.35695 0.13235-0.10428 0.084225-3.1203 2.3944-3.2567 2.5107-0.26471 0.21256-0.38503 0.51738-0.38503 0.81418v5.5909c0 0.4492 0.2246 0.55349 0.53744 0.55349"/>
</g>
</g>
</svg>
