<?xml version="1.0" encoding="UTF-8"?>
<svg xmlns="http://www.w3.org/2000/svg" xmlns:xlink="http://www.w3.org/1999/xlink" width="56pt" height="56pt" viewBox="0 0 56 56" version="1.1">
<g id="surface1">
<path style=" stroke:none;fill-rule:nonzero;fill:rgb(0%,0%,0%);fill-opacity:1;" d="M 13.816406 22.425781 C 13.816406 21.398438 14.265625 20.742188 14.78125 20.335938 C 15.292969 19.933594 25.976563 11.628906 26.277344 11.394531 C 26.574219 11.15625 26.832031 11.054688 27.082031 11.054688 C 27.328125 11.054688 27.589844 11.15625 27.890625 11.394531 C 28.1875 11.628906 38.863281 19.933594 39.378906 20.335938 C 39.890625 20.742188 40.339844 21.398438 40.339844 22.425781 L 40.339844 40.148438 C 40.339844 40.992188 39.902344 41.582031 39.019531 41.582031 L 15.136719 41.582031 C 14.253906 41.582031 13.816406 40.992188 13.816406 40.148438 Z M 46.191406 22.78125 C 46.027344 22.648438 41.933594 19.390625 41.933594 19.390625 L 41.933594 13.402344 C 41.933594 12.957031 41.757813 12.832031 41.445313 12.832031 L 38.765625 12.832031 C 38.402344 12.832031 38.179688 12.902344 38.179688 13.402344 L 38.179688 16.445313 C 33.390625 12.65625 28.195313 8.546875 28 8.390625 C 27.605469 8.082031 27.363281 8 27.082031 8 C 26.804688 8 26.5625 8.082031 26.167969 8.390625 C 25.777344 8.703125 8.5 22.367188 7.976563 22.78125 C 7.339844 23.285156 7.515625 24.011719 8.226563 24.011719 L 11.601563 24.011719 L 11.601563 42.339844 C 11.601563 43.171875 11.851563 43.636719 12.375 43.851563 C 12.601563 43.941406 12.863281 44 13.199219 44 L 40.96875 44 C 41.304688 44 41.566406 43.941406 41.789063 43.851563 C 42.316406 43.636719 42.566406 43.171875 42.566406 42.339844 L 42.566406 24.011719 L 45.9375 24.011719 C 46.648438 24.011719 46.828125 23.285156 46.191406 22.78125 "/>
<path style=" stroke:none;fill-rule:nonzero;fill:rgb(0%,0%,0%);fill-opacity:1;" d="M 20.058594 24.757813 C 20.058594 24.324219 20.058594 23.980469 20.527344 23.601563 C 20.835938 23.351563 26.402344 18.953125 26.570313 18.824219 C 26.734375 18.691406 26.898438 18.621094 27.082031 18.621094 C 27.257813 18.621094 27.429688 18.691406 27.597656 18.824219 C 27.765625 18.953125 33.328125 23.351563 33.636719 23.601563 C 34.109375 23.980469 34.109375 24.324219 34.109375 24.757813 L 34.109375 34.457031 C 34.109375 35.074219 33.765625 35.3125 33.296875 35.3125 L 20.867188 35.3125 C 20.398438 35.3125 20.058594 35.074219 20.058594 34.457031 Z M 18.769531 37.707031 L 35.398438 37.707031 C 36 37.707031 36.410156 37.371094 36.410156 36.644531 L 36.410156 23.921875 C 36.410156 23.21875 36.246094 22.8125 35.746094 22.414063 C 35.464844 22.191406 27.898438 16.207031 27.695313 16.050781 C 27.496094 15.890625 27.277344 15.808594 27.082031 15.808594 C 26.886719 15.808594 26.671875 15.890625 26.46875 16.050781 C 26.269531 16.207031 18.703125 22.191406 18.421875 22.414063 C 17.921875 22.8125 17.757813 23.21875 17.757813 23.921875 L 17.757813 36.644531 C 17.757813 37.371094 18.164063 37.707031 18.769531 37.707031 "/>
<path style=" stroke:none;fill-rule:nonzero;fill:rgb(0%,0%,0%);fill-opacity:1;" d="M 25.496094 27.066406 C 25.496094 26.945313 25.542969 26.820313 25.652344 26.734375 C 25.707031 26.6875 26.898438 25.753906 26.941406 25.71875 C 26.984375 25.6875 27.046875 25.667969 27.085938 25.667969 C 27.125 25.667969 27.1875 25.6875 27.230469 25.71875 C 27.273438 25.753906 28.464844 26.6875 28.519531 26.734375 C 28.625 26.820313 28.675781 26.945313 28.675781 27.066406 L 28.675781 29.636719 C 28.675781 29.820313 28.585938 29.859375 28.457031 29.859375 L 25.714844 29.859375 C 25.585938 29.859375 25.496094 29.820313 25.496094 29.636719 Z M 23.710938 32.199219 L 30.457031 32.199219 C 30.765625 32.199219 30.984375 32.097656 30.984375 31.660156 L 30.984375 26.214844 C 30.984375 25.925781 30.863281 25.628906 30.609375 25.421875 C 30.472656 25.308594 27.535156 23.058594 27.429688 22.976563 C 27.328125 22.894531 27.175781 22.847656 27.082031 22.847656 C 26.992188 22.847656 26.839844 22.894531 26.734375 22.976563 C 26.632813 23.058594 23.695313 25.308594 23.5625 25.421875 C 23.304688 25.628906 23.1875 25.925781 23.1875 26.214844 L 23.1875 31.660156 C 23.1875 32.097656 23.40625 32.199219 23.710938 32.199219 "/>
</g>
</svg>
