<svg xmlns="http://www.w3.org/2000/svg" xmlns:xlink="http://www.w3.org/1999/xlink" width="123" height="169" version="1.1" style=""><rect id="backgroundrect" width="100%" height="100%" x="0" y="0" fill="none" stroke="none" class="" style=""/>

<g class="currentLayer" style=""><title>Layer 1</title><rect fill="none" stroke="#000000" stroke-width="2" stroke-dashoffset="" fill-rule="nonzero" id="svg_4" x="1" y="1" width="120.83332338400322" height="167.33328623644312" style="color: rgb(0, 0, 0);" class="" rx="10" ry="10"/><g id="surface1" class="" transform="">
<path style=" stroke:none;fill-rule:nonzero;fill:rgb(0%,0%,0%);fill-opacity:1;" d="M14.149774074554443,26.14495277404785 C14.149774074554443,25.090131759643555 14.611008167266846,24.41632843017578 15.140425205230713,23.99921417236328 C15.66582727432251,23.58610725402832 26.635172367095947,15.059303283691406 26.94399881362915,14.818660736083984 C27.248810291290283,14.574003219604492 27.5135235786438,14.469732284545898 27.77020502090454,14.469732284545898 C28.022886753082275,14.469732284545898 28.29160165786743,14.574003219604492 28.600426197052002,14.818660736083984 C28.905243396759033,15.059303283691406 39.86655855178833,23.58610725402832 40.39597749710083,23.99921417236328 C40.92137575149536,24.41632843017578 41.382614612579346,25.090131759643555 41.382614612579346,26.14495277404785 L41.382614612579346,44.341609954833984 C41.382614612579346,45.20793914794922 40.933414936065674,45.81355285644531 40.026989459991455,45.81355285644531 L15.505403995513916,45.81355285644531 C14.598979473114014,45.81355285644531 14.149774074554443,45.20793914794922 14.149774074554443,44.341609954833984 zM47.39067888259888,26.509931564331055 C47.22222566604614,26.373565673828125 43.01899003982544,23.02861785888672 43.01899003982544,23.02861785888672 L43.01899003982544,16.88017463684082 C43.01899003982544,16.42294692993164 42.838505268096924,16.294607162475586 42.517643451690674,16.294607162475586 L39.76628923416138,16.294607162475586 C39.39329957962036,16.294607162475586 39.16468095779419,16.366798400878906 39.16468095779419,16.88017463684082 L39.16468095779419,20.00452995300293 C34.24752855300903,16.114126205444336 28.91326379776001,11.894837379455566 28.712725162506104,11.734411239624023 C28.307642459869385,11.417561531066895 28.05898141860962,11.333335876464844 27.77020502090454,11.333335876464844 C27.485451221466064,11.333335876464844 27.236778736114502,11.417561531066895 26.831697940826416,11.734411239624023 C26.43062448501587,12.055269241333008 8.691174030303955,26.084794998168945 8.153738498687744,26.509931564331055 C7.4999871253967285,27.027313232421875 7.680469989776611,27.77330780029297 8.410423755645752,27.77330780029297 L11.875694751739502,27.77330780029297 L11.875694751739502,46.59162902832031 C11.875694751739502,47.445919036865234 12.13238000869751,47.923187255859375 12.669816493988037,48.14378356933594 C12.902443408966064,48.23603057861328 13.171160221099854,48.29619598388672 13.516083240509033,48.29619598388672 L42.02833604812622,48.29619598388672 C42.37326097488403,48.29619598388672 42.641979694366455,48.23603057861328 42.870590686798096,48.14378356933594 C43.41204118728638,47.923187255859375 43.66872835159302,47.445919036865234 43.66872835159302,46.59162902832031 L43.66872835159302,27.77330780029297 L47.129990100860596,27.77330780029297 C47.859936237335205,27.77330780029297 48.04443025588989,27.027313232421875 47.39067888259888,26.509931564331055 " id="svg_1" transform=""/>
<path style=" stroke:none;fill-rule:nonzero;fill:rgb(0%,0%,0%);fill-opacity:1;" d="M20.55892038345337,28.539356231689453 C20.55892038345337,28.094167709350586 20.55892038345337,27.741222381591797 21.040205478668213,27.352182388305664 C21.357054233551025,27.095495223999023 27.072344303131104,22.579416275024414 27.24480676651001,22.447063446044922 C27.413254261016846,22.310701370239258 27.58169984817505,22.238506317138672 27.77020502090454,22.238506317138672 C27.95069169998169,22.238506317138672 28.127167224884033,22.310701370239258 28.299625873565674,22.447063446044922 C28.47208833694458,22.579416275024414 34.183353900909424,27.095495223999023 34.500202655792236,27.352182388305664 C34.98550462722778,27.741222381591797 34.98550462722778,28.094167709350586 34.98550462722778,28.539356231689453 L34.98550462722778,38.497982025146484 C34.98550462722778,39.13168716430664 34.632553577423096,39.376338958740234 34.15126848220825,39.376338958740234 L21.389139652252197,39.376338958740234 C20.90785264968872,39.376338958740234 20.55892038345337,39.13168716430664 20.55892038345337,38.497982025146484 zM19.235378742218018,41.83491516113281 L36.3090443611145,41.83491516113281 C36.92669725418091,41.83491516113281 37.347816944122314,41.489990234375 37.347816944122314,40.74399185180664 L37.347816944122314,27.681062698364258 C37.347816944122314,26.95913314819336 37.179367542266846,26.542016983032227 36.66599702835083,26.132919311523438 C36.37722444534302,25.90431022644043 28.60844850540161,19.759876251220703 28.399893283843994,19.599445343017578 C28.195345401763916,19.43500518798828 27.970743656158447,19.350780487060547 27.77020502090454,19.350780487060547 C27.569668292999268,19.350780487060547 27.349085330963135,19.43500518798828 27.140520572662354,19.599445343017578 C26.935978412628174,19.759876251220703 19.16719675064087,25.90431022644043 18.878424167633057,26.132919311523438 C18.365049839019775,26.542016983032227 18.196600437164307,26.95913314819336 18.196600437164307,27.681062698364258 L18.196600437164307,40.74399185180664 C18.196600437164307,41.489990234375 18.61371660232544,41.83491516113281 19.235378742218018,41.83491516113281 " id="svg_2" transform=""/>
<path style=" stroke:none;fill-rule:nonzero;fill:rgb(0%,0%,0%);fill-opacity:1;" d="M26.141851902008057,30.909692764282227 C26.141851902008057,30.78536605834961 26.18998384475708,30.65702247619629 26.302284717559814,30.56878662109375 C26.35843324661255,30.520658493041992 27.58169984817505,29.56209373474121 27.625820636749268,29.526002883911133 C27.669941425323486,29.49390983581543 27.73411226272583,29.473857879638672 27.774223804473877,29.473857879638672 C27.814329624176025,29.473857879638672 27.87849473953247,29.49390983581543 27.922617435455322,29.526002883911133 C27.966732501983643,29.56209373474121 29.189999103546143,30.520658493041992 29.246151447296143,30.56878662109375 C29.35443925857544,30.65702247619629 29.406578540802002,30.78536605834961 29.406578540802002,30.909692764282227 L29.406578540802002,33.54874801635742 C29.406578540802002,33.73725128173828 29.314331531524658,33.77735900878906 29.181978702545166,33.77735900878906 L26.366453647613525,33.77735900878906 C26.2340989112854,33.77735900878906 26.141851902008057,33.73725128173828 26.141851902008057,33.54874801635742 zM24.30894899368286,36.17979049682617 L31.235470294952393,36.17979049682617 C31.55231523513794,36.17979049682617 31.776920795440674,36.075504302978516 31.776920795440674,35.62630081176758 L31.776920795440674,30.035362243652344 C31.776920795440674,29.738563537597656 31.652584552764893,29.433746337890625 31.391884326934814,29.2211856842041 C31.251511096954346,29.10487174987793 28.23545503616333,26.79469108581543 28.127167224884033,26.710466384887695 C28.022886753082275,26.626243591308594 27.866465091705322,26.57811164855957 27.77020502090454,26.57811164855957 C27.677961826324463,26.57811164855957 27.521543979644775,26.626243591308594 27.413254261016846,26.710466384887695 C27.308971881866455,26.79469108581543 24.292906284332275,29.10487174987793 24.15654230117798,29.2211856842041 C23.89183282852173,29.433746337890625 23.771511554718018,29.738563537597656 23.771511554718018,30.035362243652344 L23.771511554718018,35.62630081176758 C23.771511554718018,36.075504302978516 23.996111392974854,36.17979049682617 24.30894899368286,36.17979049682617 " id="svg_3" transform=""/>
</g></g></svg>